<svg viewBox="0 0 24 24" fill="none" xmlns="http://www.w3.org/2000/svg"><path d="M8.03 3.66a1.04 1.04 0 0 1 1.94 0l1.07 2.72c.1.26.32.48.58.58l2.72 1.07c.88.35.88 1.6 0 1.94l-2.72 1.07q-.41.17-.58.58l-1.07 2.72c-.35.88-1.6.88-1.94 0l-1.07-2.72c-.1-.26-.32-.48-.58-.58L3.66 9.97a1.04 1.04 0 0 1 0-1.94l2.72-1.07c.26-.1.48-.32.58-.58z" stroke="#1C274C" stroke-width="1.5"/><path opacity=".4" d="M16.49 13.35a.55.55 0 0 1 1.02 0l.8 2.03q.1.22.31.3l2.03.8c.47.2.47.85 0 1.03l-2.03.8a.6.6 0 0 0-.3.31l-.8 2.03a.55.55 0 0 1-1.03 0l-.8-2.03a.6.6 0 0 0-.31-.3l-2.03-.8a.55.55 0 0 1 0-1.03l2.03-.8a.6.6 0 0 0 .3-.31z" stroke="#1C274C" stroke-width="1.5"/></svg>